<?xml version="1.0" standalone="no"?><!DOCTYPE svg PUBLIC "-//W3C//DTD SVG 1.1//EN" "http://www.w3.org/Graphics/SVG/1.1/DTD/svg11.dtd"><svg t="1510370409470" class="icon" style="" viewBox="0 0 1076 1024" version="1.1" xmlns="http://www.w3.org/2000/svg" p-id="3599" xmlns:xlink="http://www.w3.org/1999/xlink" width="210.15625" height="200"><defs><style type="text/css"></style></defs><path d="M967.68 153.6C967.68 125.3376 943.59552 102.4 913.92 102.4L161.28 102.4C131.60448 102.4 107.52 125.3376 107.52 153.6L107.52 870.4C107.52 898.6624 131.60448 921.6 161.28 921.6L913.92 921.6C943.59552 921.6 967.68 898.6624 967.68 870.4L967.68 153.6ZM1075.2 102.4 1075.2 921.6C1075.2 978.176 1027.0848 1024 967.68 1024L107.52 1024C48.1152 1024 0 978.176 0 921.6L0 102.4C0 45.824 48.1152 0 107.52 0L967.68 0C1027.0848 0 1075.2 45.824 1075.2 102.4L1075.2 102.4ZM753.76896 359.168C774.78912 379.136 774.78912 411.5968 753.76896 431.5648L544.75008 630.6304C513.19296 660.6336 462.12096 660.6336 430.56384 630.6304L335.56992 540.16C314.60352 520.192 314.60352 487.7824 335.56992 467.7632 356.59008 447.7952 390.62016 447.7952 411.58656 467.7632L449.54112 503.9104C470.56128 523.9296 504.69888 523.9296 525.7728 503.9104L677.75232 359.168C698.71872 339.1488 732.80256 339.1488 753.76896 359.168L753.76896 359.168Z" p-id="3600"></path></svg>